<?xml version="1.0" standalone="no"?><!DOCTYPE svg PUBLIC "-//W3C//DTD SVG 1.1//EN" "http://www.w3.org/Graphics/SVG/1.1/DTD/svg11.dtd"><svg t="1594631717405" class="icon" viewBox="0 0 1024 1024" version="1.1" xmlns="http://www.w3.org/2000/svg" p-id="4213" xmlns:xlink="http://www.w3.org/1999/xlink" width="16" height="16"><defs><style type="text/css"></style></defs><path d="M640 704h-64a32 32 0 0 1 0-64h64v-64a32 32 0 0 1 64 0v64h64a32 32 0 0 1 0 64h-64v64a32 32 0 0 1-64 0v-64zM288 352h448V291.52a3.52 3.52 0 0 0-3.52-3.52H291.52a3.52 3.52 0 0 0-3.52 3.52V352z m480 64H288v316.48c0 1.92 1.6 3.52 3.52 3.52H512a32 32 0 0 1 0 64H291.52A67.52 67.52 0 0 1 224 732.48V291.52A67.52 67.52 0 0 1 291.52 224h440.96A67.52 67.52 0 0 1 800 291.52V384a32 32 0 0 1-32 32z" p-id="4214" fill="#ffffff"></path></svg>