<?xml version="1.0" standalone="no"?><!DOCTYPE svg PUBLIC "-//W3C//DTD SVG 1.1//EN" "http://www.w3.org/Graphics/SVG/1.1/DTD/svg11.dtd"><svg t="1594992701001" class="icon" viewBox="0 0 1024 1024" version="1.1" xmlns="http://www.w3.org/2000/svg" p-id="3852" xmlns:xlink="http://www.w3.org/1999/xlink" width="16" height="16"><defs><style type="text/css"></style></defs><path d="M480 297.6V256a32 32 0 1 1 64 0v41.6c73.024 14.816 128 79.392 128 156.8V608h64a32 32 0 0 1 0 64H288a32 32 0 0 1 0-64h64v-153.6a160.064 160.064 0 0 1 128-156.8z m128 310.4v-153.6a96 96 0 1 0-192 0V608h192z m-32 192h-128a32 32 0 0 1 0-64h128a32 32 0 0 1 0 64z" p-id="3853" fill="#3c3c3c"></path></svg>