<?xml version="1.0" standalone="no"?><!DOCTYPE svg PUBLIC "-//W3C//DTD SVG 1.1//EN" "http://www.w3.org/Graphics/SVG/1.1/DTD/svg11.dtd"><svg t="1595307871436" class="icon" viewBox="0 0 1024 1024" version="1.1" xmlns="http://www.w3.org/2000/svg" p-id="3876" xmlns:xlink="http://www.w3.org/1999/xlink" width="16" height="16"><defs><style type="text/css"></style></defs><path d="M768 800H256a32 32 0 0 1-32-32V256a32 32 0 0 1 32-32h384a32 32 0 0 1 32 32v384a32 32 0 0 1-64 0V288H288v448h448V320a32 32 0 0 1 64 0v448a32 32 0 0 1-32 32z m-256-384h-128a32 32 0 1 1 0-64h128a32 32 0 1 1 0 64z m0 128h-128a32 32 0 1 1 0-64h128a32 32 0 1 1 0 64z m-64 128h-64a32 32 0 0 1 0-64h64a32 32 0 0 1 0 64z" p-id="3877" fill="#ffffff"></path></svg>