<?xml version="1.0" standalone="no"?><!DOCTYPE svg PUBLIC "-//W3C//DTD SVG 1.1//EN" "http://www.w3.org/Graphics/SVG/1.1/DTD/svg11.dtd"><svg t="1594631706559" class="icon" viewBox="0 0 1024 1024" version="1.1" xmlns="http://www.w3.org/2000/svg" p-id="4027" xmlns:xlink="http://www.w3.org/1999/xlink" width="16" height="16"><defs><style type="text/css"></style></defs><path d="M736 352V291.52a3.52 3.52 0 0 0-3.52-3.52H291.52a3.52 3.52 0 0 0-3.52 3.52V352h448z m0 64H288v316.48c0 1.92 1.6 3.52 3.52 3.52h440.96c1.92 0 3.52-1.6 3.52-3.52V416z m-3.52 384H291.52A67.52 67.52 0 0 1 224 732.48V291.52A67.52 67.52 0 0 1 291.52 224h440.96A67.52 67.52 0 0 1 800 291.52v440.96A67.52 67.52 0 0 1 732.48 800zM544 544h-160a32 32 0 1 1 0-64h160a32 32 0 0 1 0 64z m96 128h-128a32 32 0 0 1 0-64h128a32 32 0 0 1 0 64z" p-id="4028" fill="#ffffff"></path></svg>