<?xml version="1.0" standalone="no"?><!DOCTYPE svg PUBLIC "-//W3C//DTD SVG 1.1//EN" "http://www.w3.org/Graphics/SVG/1.1/DTD/svg11.dtd"><svg t="1594280790870" class="icon" viewBox="0 0 1024 1024" version="1.1" xmlns="http://www.w3.org/2000/svg" p-id="4407" xmlns:xlink="http://www.w3.org/1999/xlink" width="200" height="200"><defs><style type="text/css"></style></defs><path d="M604.992 536a192.576 192.576 0 0 1 88.992 106.624 224 224 0 1 0-363.968 0 192.576 192.576 0 0 1 88.992-106.656 128 128 0 1 1 185.952 0z m-220.736 160A222.976 222.976 0 0 0 512 736c47.488 0 91.52-14.784 127.744-40a128 128 0 0 0-255.488 0zM512 800a288 288 0 1 1 0-576 288 288 0 0 1 0 576z m0-288a64 64 0 1 0 0-128 64 64 0 0 0 0 128z" p-id="4408" fill="#ffffff"></path></svg>