<?xml version="1.0" standalone="no"?><!DOCTYPE svg PUBLIC "-//W3C//DTD SVG 1.1//EN" "http://www.w3.org/Graphics/SVG/1.1/DTD/svg11.dtd"><svg t="1594281243026" class="icon" viewBox="0 0 1024 1024" version="1.1" xmlns="http://www.w3.org/2000/svg" p-id="4771" xmlns:xlink="http://www.w3.org/1999/xlink" width="200" height="200"><defs><style type="text/css"></style></defs><path d="M800 416H320v316.48c0 1.92 1.6 3.52 3.52 3.52H416a32 32 0 0 1 0 64h-92.48A67.52 67.52 0 0 1 256 732.48V291.52A67.52 67.52 0 0 1 323.52 224h440.96A67.52 67.52 0 0 1 832 291.52V384a32 32 0 0 1-32 32z m-32-64V291.52a3.52 3.52 0 0 0-3.52-3.52H323.52a3.52 3.52 0 0 0-3.52 3.52V352h448z m32 448h-256a32 32 0 0 1-26.56-49.6l73.6-110.4-73.6-110.4A32 32 0 0 1 544 480h256a32 32 0 0 1 26.56 49.6L752.96 640l73.6 110.4A32 32 0 0 1 800 800z m-196.16-64h136.32l-52.16-78.4a32 32 0 0 1 0-35.52l52.16-78.4h-136.32l52.16 78.4a32 32 0 0 1 0 35.52L603.84 736z" p-id="4772" fill="#ffffff"></path></svg>