<svg t="1594274430678" class="icon" viewBox="0 0 1024 1024" version="1.1" xmlns="http://www.w3.org/2000/svg" p-id="4145" width="200" height="200"><path d="M288 352h448V291.52a3.52 3.52 0 0 0-3.52-3.52H291.52a3.52 3.52 0 0 0-3.52 3.52V352z m480 64H288v316.48a3.52 3.52 0 0 0 3.52 3.52H448a32 32 0 0 1 0 64H291.52A67.52 67.52 0 0 1 224 732.48V291.52A67.52 67.52 0 0 1 291.52 224h440.96A67.52 67.52 0 0 1 800 291.52V384a32 32 0 0 1-32 32z m0 384a32 32 0 0 1-17.6-5.44L672 742.4l-78.4 52.16A32 32 0 0 1 544 768v-256a32 32 0 0 1 32-32h192a32 32 0 0 1 32 32v256a32 32 0 0 1-32 32z m-96-128a32 32 0 0 1 17.6 5.44l46.4 32V544h-128v164.16l46.4-32A32 32 0 0 1 672 672z" p-id="4146" fill="#ffffff"></path></svg>