<svg t="1594274391251" class="icon" viewBox="0 0 1024 1024" version="1.1" xmlns="http://www.w3.org/2000/svg" p-id="3821" width="200" height="200"><path d="M512 576a64 64 0 1 0 0-128 64 64 0 0 0 0 128z m0 64a128 128 0 1 1 0-256 128 128 0 0 1 0 256z m246.112-95.2c6.048 10.08 14.624 18.24 24.992 23.936a32 32 0 0 1 12.032 44.48l-52.16 87.168a32 32 0 0 1-42.912 11.584c-33.6-18.56-76.32-7.552-95.168 23.936A62.08 62.08 0 0 0 596 768a32 32 0 0 1-32 32.064h-104.32a32 32 0 0 1-32-31.84c-0.192-36.064-30.784-65.632-68.928-65.632-12.48 0-24.384 3.136-34.752 8.96a32 32 0 0 1-43.2-11.424l-52.16-87.168a32 32 0 0 1 11.808-44.32c32.768-18.4 43.808-57.952 25.312-88.864a65.664 65.664 0 0 0-25.088-24.032 32 32 0 0 1-12.16-44.512l52.16-87.168a32 32 0 0 1 42.944-11.584c33.696 18.688 76.544 7.744 95.392-23.744a62.08 62.08 0 0 0 8.96-32.48 32 32 0 0 1 32-32.288h104.288a32 32 0 0 1 32 32c0 36.256 30.624 66.016 68.896 66.016 12.48 0 24.448-3.2 34.88-9.12a32 32 0 0 1 43.296 11.392l52.16 87.168a32 32 0 0 1-11.84 44.352c-32.928 18.4-44.032 58.048-25.536 88.96z m-54.912 32.864c-31.456-52.64-20.352-117.632 22.496-158.144l-23.168-38.72a135.488 135.488 0 0 1-37.376 5.216c-61.984 0-114.24-41.568-128.864-98.016H488c-3.008 11.648-7.68 22.944-14.048 33.6-31.392 52.416-94.944 75.2-152.416 58.88l-23.168 38.72c8.64 8.128 16.192 17.472 22.368 27.84 31.36 52.448 20.352 117.344-22.336 157.856l23.232 38.848c11.936-3.36 24.384-5.12 37.12-5.12 61.76 0 113.984 41.28 128.736 97.472h48.608c2.976-11.456 7.616-22.56 13.856-33.024 31.36-52.384 94.784-75.2 152.16-59.008l23.232-38.848a129.6 129.6 0 0 1-22.144-27.52z" p-id="3822" fill="#ffffff"></path></svg>