<svg t="1594276256686" class="icon" viewBox="0 0 1024 1024" version="1.1" xmlns="http://www.w3.org/2000/svg" p-id="4487" width="200" height="200"><path d="M640 416h-256a32 32 0 1 1 0-64h256a32 32 0 0 1 0 64z m-256 256a32 32 0 0 1-32-32v-128a32 32 0 1 1 64 0v128a32 32 0 0 1-32 32z m128 0a32 32 0 0 1-32-32v-128a32 32 0 1 1 64 0v128a32 32 0 0 1-32 32z m128 0a32 32 0 0 1-32-32v-128a32 32 0 0 1 64 0v128a32 32 0 0 1-32 32z m96 128H288a64 64 0 0 1-64-64V288a64 64 0 0 1 64-64h448a64 64 0 0 1 64 64v448a64 64 0 0 1-64 64zM288 288v448h448V288H288z" p-id="4488" fill="#ffffff"></path></svg>