<!DOCTYPE svg PUBLIC "-//W3C//DTD SVG 20010904//EN" "http://www.w3.org/TR/2001/REC-SVG-20010904/DTD/svg10.dtd">
<svg version="1.0" xmlns="http://www.w3.org/2000/svg" width="500px" height="499px" viewBox="0 0 5000 4990" preserveAspectRatio="xMidYMid meet">
<g id="layer101" fill="#0680cb" stroke="none">
 <path d="M2220 4531 c-296 -32 -618 -149 -878 -319 -494 -322 -809 -804 -914 -1397 -32 -185 -32 -455 0 -640 77 -436 254 -788 550 -1097 251 -261 550 -442 922 -557 19 -6 94 -23 165 -38 121 -25 147 -27 385 -27 240 0 263 2 385 28 161 33 368 102 489 161 607 296 1022 841 1143 1502 23 129 27 174 27 348 0 174 -4 219 -27 348 -154 843 -796 1498 -1628 1662 -112 22 -167 27 -339 30 -113 2 -239 0 -280 -4z m535 -106 c108 -17 299 -67 392 -104 593 -233 1031 -724 1192 -1331 141 -536 38 -1138 -271 -1587 -103 -149 -185 -243 -205 -237 -13 4 -14 3 -5 -3 24 -18 -189 -204 -361 -317 -207 -135 -490 -242 -752 -283 -150 -23 -440 -23 -590 0 -366 58 -705 215 -988 460 -44 38 -55 52 -45 59 10 8 9 9 -3 5 -11 -4 -38 17 -80 59 -53 54 -61 66 -49 75 13 9 12 10 -2 5 -12 -3 -29 10 -56 42 -76 93 -112 150 -106 166 3 9 1 16 -6 16 -6 0 -8 -6 -5 -12 4 -7 -2 -2 -13 12 -33 40 -138 248 -177 350 -157 409 -167 893 -29 1308 168 502 545 929 1020 1153 219 103 387 148 684 183 72 9 349 -3 455 -19z"/>
 <path d="M2226 4390 c-490 -61 -952 -319 -1258 -702 -39 -49 -72 -88 -75 -88 -2 0 -1 5 2 10 3 6 1 10 -5 10 -7 0 -9 -7 -6 -16 4 -10 -13 -47 -45 -97 -123 -192 -224 -450 -265 -680 -83 -464 18 -965 272 -1354 55 -85 62 -99 44 -88 -5 3 -10 1 -10 -5 0 -7 6 -10 14 -7 9 4 32 -17 62 -56 111 -143 264 -285 435 -403 55 -38 84 -65 82 -74 -4 -12 -2 -12 5 -2 6 10 28 2 93 -32 136 -71 309 -135 472 -173 152 -36 153 -36 397 -36 230 -1 253 0 372 26 69 15 162 38 206 52 44 14 88 22 98 19 14 -4 15 -3 6 3 -10 7 0 15 35 28 60 22 263 127 320 165 25 17 50 27 61 24 11 -4 13 -3 5 3 -15 11 173 159 196 155 11 -2 12 0 4 6 -9 5 9 29 61 81 41 40 76 69 78 65 3 -5 4 -4 2 2 -1 6 19 38 45 70 26 33 69 91 96 129 26 39 54 69 61 67 8 -2 14 2 14 8 0 6 -5 8 -10 5 -15 -9 -12 7 5 32 8 11 35 61 59 109 207 413 257 882 140 1328 -142 540 -513 990 -1019 1236 -143 70 -263 111 -439 152 -118 26 -152 30 -336 33 -113 2 -236 0 -274 -5z m476 -56 c62 -8 137 -22 168 -31 30 -8 71 -19 91 -24 183 -45 422 -164 608 -304 231 -174 444 -436 562 -692 276 -595 223 -1274 -141 -1820 -282 -423 -719 -707 -1230 -800 -120 -22 -464 -24 -590 -5 -254 40 -541 153 -750 294 -382 258 -658 647 -770 1087 -70 275 -72 628 -4 896 135 537 491 978 990 1228 150 75 379 146 539 167 50 6 97 13 105 15 50 10 325 3 422 -11z"/>
 <path d="M2318 4163 c-36 -4 -50 -17 -27 -25 15 -5 24 -94 10 -102 -6 -4 -11 -12 -11 -18 0 -7 22 -8 68 -3 81 9 152 9 172 1 8 -3 31 -5 50 -5 19 0 49 -2 67 -6 37 -8 46 4 57 75 4 24 12 48 19 52 16 10 8 15 -39 20 l-41 6 4 -47 c4 -49 -7 -78 -26 -67 -14 9 -15 83 -1 91 23 14 7 25 -35 25 -25 0 -45 -4 -45 -10 0 -5 4 -10 9 -10 9 0 6 -55 -5 -89 -6 -20 -36 7 -30 28 2 9 7 33 11 54 l6 37 -46 0 c-25 0 -45 -4 -45 -10 0 -5 5 -10 10 -10 12 0 13 -87 1 -94 -5 -3 -11 1 -15 9 -7 20 -45 19 -53 -2 -6 -15 -7 -15 -14 3 -13 32 -10 72 6 78 21 8 19 26 -2 24 -10 -1 -35 -3 -55 -5z"/>
 <path d="M2143 4140 c-47 -19 -57 -87 -18 -125 52 -53 145 -15 145 59 0 59 -63 92 -127 66z m57 -36 c16 -42 13 -86 -7 -82 -21 4 -37 51 -29 83 8 32 24 32 36 -1z"/>
 <path d="M2749 4124 c-10 -12 -10 -22 -2 -44 9 -23 8 -30 -3 -34 -36 -14 0 -61 54 -72 41 -8 59 7 73 62 7 26 17 44 25 44 8 0 14 4 14 9 0 16 -29 33 -52 30 -13 -2 -33 2 -45 9 -29 16 -48 15 -64 -4z m53 -116 c-9 -9 -12 -7 -12 12 0 19 3 21 12 12 9 -9 9 -15 0 -24z"/>
 <path d="M2012 4108 c-5 -7 -25 -48 -43 -91 l-33 -79 -13 53 c-12 45 -11 54 2 69 22 24 10 29 -37 15 -45 -13 -63 -35 -29 -35 34 0 66 -131 39 -158 -19 -19 -3 -24 39 -12 35 11 41 18 68 83 l29 72 12 -40 c10 -33 9 -43 -4 -58 -8 -9 -12 -20 -9 -23 10 -10 90 20 95 35 3 10 0 12 -11 8 -21 -8 -33 8 -47 63 -28 111 -36 124 -58 98z"/>
 <path d="M2925 4078 c8 -31 -39 -162 -59 -166 -9 -2 -16 -7 -16 -11 0 -7 71 -44 75 -39 1 2 15 41 30 88 15 47 34 90 41 96 25 20 18 26 -54 48 -20 7 -22 5 -17 -16z"/>
 <path d="M1673 3978 c-13 -6 -23 -15 -23 -20 0 -4 -11 -8 -25 -8 -15 0 -31 -9 -41 -25 -15 -24 -15 -27 9 -73 18 -35 22 -53 16 -65 -6 -9 -6 -17 -2 -17 11 0 73 38 73 45 0 4 -11 23 -25 43 -29 42 -31 58 -10 66 18 7 54 -59 47 -88 -2 -10 0 -17 5 -14 44 21 63 33 63 40 0 5 -11 27 -25 49 -16 25 -24 47 -20 60 7 22 -7 24 -42 7z"/>
 <path d="M3158 3963 c-8 -10 -27 -39 -42 -65 -15 -27 -34 -48 -42 -48 -27 0 -10 -23 35 -48 43 -24 63 -24 43 1 -8 10 -3 28 22 72 29 53 37 60 61 58 53 -4 57 -38 15 -105 -20 -31 -37 -48 -50 -48 -31 0 -24 -14 21 -39 44 -25 57 -23 39 6 -10 16 -7 28 19 74 17 31 31 63 31 73 0 62 -113 114 -152 69z"/>
 <path d="M3365 3870 c8 -25 -40 -91 -61 -83 -8 3 -14 1 -14 -4 0 -12 43 -53 56 -53 5 0 20 -12 33 -25 13 -14 29 -25 37 -25 7 0 30 20 50 44 35 42 57 49 67 22 3 -8 -8 -29 -24 -49 -21 -25 -35 -34 -49 -30 -27 7 -25 -9 3 -35 32 -30 40 -28 80 18 24 28 39 38 51 34 31 -12 16 13 -42 68 -54 50 -172 138 -187 138 -4 0 -4 -9 0 -20z m85 -62 c0 -6 -12 -27 -26 -45 -19 -25 -29 -32 -37 -24 -16 16 20 81 45 81 10 0 18 -5 18 -12z"/>
 <path d="M1461 3846 c-26 -14 -50 -51 -51 -77 0 -9 9 -28 21 -43 38 -49 125 -30 147 33 11 30 -5 76 -31 93 -18 12 -59 9 -86 -6z m41 -44 c3 8 12 -1 22 -21 14 -26 15 -35 5 -41 -16 -10 -36 -3 -43 16 -3 9 -1 12 4 9 6 -3 10 -2 10 3 0 5 -9 12 -20 15 -11 3 -20 13 -20 23 0 16 1 16 19 0 15 -13 20 -14 23 -4z"/>
 <path d="M2390 3793 c-192 -13 -333 -49 -500 -130 -370 -179 -628 -512 -716 -924 -25 -117 -25 -371 0 -488 77 -361 288 -667 591 -858 121 -77 323 -156 450 -178 78 -13 331 -17 415 -7 168 21 391 107 542 209 507 341 710 996 484 1558 -168 416 -561 734 -989 799 -104 16 -210 23 -277 19z m240 -78 c267 -41 501 -158 689 -344 92 -91 202 -246 246 -346 15 -33 33 -74 40 -90 56 -125 90 -373 75 -546 -65 -742 -765 -1257 -1495 -1098 -458 99 -812 443 -935 909 -31 117 -39 375 -17 505 20 113 57 227 108 332 31 65 43 81 57 77 13 -5 14 -4 3 4 -20 15 74 146 182 254 274 272 668 401 1047 343z"/>
 <path d="M2260 3480 c0 -5 5 -12 11 -16 8 -4 7 -9 -2 -16 -11 -8 -11 -9 2 -5 9 3 42 -8 73 -23 56 -28 56 -29 29 -36 -56 -12 -129 -35 -155 -50 -14 -8 -53 -14 -85 -14 -71 0 -156 -21 -223 -55 -52 -26 -61 -39 -34 -49 23 -9 131 -7 184 4 25 4 46 7 47 6 1 -1 -6 -20 -17 -42 -46 -94 -36 -113 37 -71 58 33 96 67 135 123 27 38 52 58 111 89 l76 40 76 -39 c59 -30 85 -50 114 -90 45 -60 71 -84 128 -120 77 -47 91 -30 48 62 l-24 53 37 -8 c20 -4 75 -8 122 -8 102 0 113 16 37 54 -69 33 -142 51 -215 51 -42 0 -75 6 -100 19 -44 23 -148 51 -156 43 -3 -3 -6 -1 -6 4 0 5 29 24 65 42 36 17 65 36 65 42 0 19 -41 10 -112 -26 l-72 -36 -70 32 c-87 39 -126 51 -126 40z"/>
 <path d="M1870 3191 c-66 -20 -180 -98 -180 -122 0 -27 161 2 226 40 20 12 34 18 32 14 -31 -61 -47 -107 -53 -150 -6 -48 -5 -53 12 -53 27 0 93 68 115 118 23 52 36 152 20 152 -6 0 -14 -4 -17 -10 -3 -5 -12 -10 -18 -9 -9 0 -9 2 1 6 49 20 -77 32 -138 14z"/>
 <path d="M2906 3168 l29 -31 -36 26 c-20 15 -39 27 -44 27 -13 0 5 -101 27 -152 21 -50 87 -118 113 -118 32 0 9 129 -35 190 l-22 31 36 -25 c20 -13 51 -28 68 -31 20 -5 26 -10 18 -15 -14 -9 -1 -39 34 -79 20 -23 19 -23 -15 2 -20 15 -39 27 -43 27 -4 0 -6 -25 -4 -55 l3 -55 -585 0 -585 0 3 55 c2 31 0 55 -6 55 -12 0 -92 -86 -92 -100 0 -5 -8 -10 -18 -10 -14 0 -7 12 27 48 25 27 54 63 65 81 l18 33 -33 -7 c-63 -12 -138 -56 -183 -106 l-44 -49 -66 0 -66 0 0 -454 0 -455 57 -16 c31 -9 69 -14 83 -12 23 5 28 1 43 -41 9 -26 24 -56 32 -67 24 -31 37 -2 32 73 -3 62 -3 62 17 43 15 -16 19 -31 17 -69 -1 -29 4 -66 14 -88 16 -39 52 -84 67 -84 16 0 8 96 -12 135 -11 22 -20 40 -20 41 0 1 17 -7 39 -18 47 -23 111 -35 111 -20 0 39 -160 172 -207 172 -7 0 -13 5 -13 11 0 7 12 9 36 5 25 -5 43 -3 59 8 18 12 45 15 97 14 40 -1 123 6 183 16 137 23 430 18 600 -9 90 -15 119 -16 165 -7 31 7 78 12 106 12 53 -1 180 -23 191 -33 3 -4 -1 -37 -10 -75 -17 -71 -13 -142 8 -142 17 0 55 82 64 140 4 28 10 53 13 55 3 3 20 -1 39 -9 28 -12 43 -12 89 -2 l55 13 3 431 2 432 -69 0 c-68 0 -70 1 -90 34 -26 41 -88 86 -150 107 l-46 16 74 -5 c72 -5 73 -4 62 16 -31 59 -173 122 -273 122 l-62 0 30 -32z m404 -697 l0 -369 -72 19 c-40 10 -119 24 -175 31 l-103 12 0 32 c0 31 1 32 58 40 l57 9 3 51 3 51 82 9 82 9 3 238 2 237 30 0 30 0 0 -369z m-1730 -37 c0 -371 -1 -395 -17 -392 -17 3 -18 31 -21 396 -2 387 -2 392 18 392 20 0 20 -6 20 -396z m150 120 c0 -258 -1 -275 -17 -270 -10 3 -30 8 -45 12 l-28 6 0 264 0 264 45 0 45 0 0 -276z m130 -5 c0 -252 -2 -281 -16 -275 -9 3 -22 6 -30 6 -12 0 -14 44 -14 275 l0 275 30 0 30 0 0 -281z m1150 241 l0 -40 -193 0 c-107 0 -350 3 -540 7 l-347 6 0 34 0 33 540 0 540 0 0 -40z m0 -246 c0 -135 -1 -146 -17 -139 -36 14 -213 35 -394 46 -175 11 -470 2 -633 -18 l-48 -6 5 129 c3 71 6 130 6 132 1 1 244 2 541 2 l540 0 0 -146z m-305 -164 c55 -5 119 -13 143 -16 41 -6 42 -7 42 -46 0 -39 -1 -40 -27 -33 -142 36 -467 45 -738 20 -211 -20 -195 -21 -195 19 l0 34 98 11 c134 15 170 17 387 19 105 1 235 -3 290 -8z m-135 -120 c91 -5 181 -12 200 -15 34 -6 35 -7 33 -51 0 -25 -3 -48 -6 -51 -3 -2 -41 4 -84 14 -133 31 -506 24 -695 -13 -28 -6 -28 -5 -28 45 l0 50 43 6 c35 5 222 18 342 23 17 1 104 -3 195 -8z m-800 -89 c0 -44 -2 -49 -20 -44 -16 4 -20 14 -20 49 0 37 3 44 20 44 17 0 20 -7 20 -49z m160 12 c0 -22 -2 -25 -10 -13 -8 12 -10 10 -10 -8 0 -13 -4 -21 -8 -18 -5 3 -7 19 -4 36 5 38 32 41 32 3z"/>
 <path d="M2217 3154 c-4 -4 -7 -38 -7 -76 0 -55 -3 -68 -16 -68 -29 0 -8 -25 25 -28 l32 -3 -3 87 c-3 80 -12 107 -31 88z"/>
 <path d="M2337 3143 c3 -10 10 -24 16 -30 6 -9 6 -13 -1 -13 -20 0 -42 -31 -42 -59 0 -54 68 -82 103 -43 24 26 21 56 -10 105 -15 23 -27 43 -28 43 0 1 -10 5 -22 8 -19 6 -22 4 -16 -11z m53 -89 c11 -12 10 -18 -3 -32 -15 -15 -19 -15 -32 -1 -17 17 -11 49 10 49 7 0 18 -7 25 -16z"/>
 <path d="M2451 3087 c-2 -79 13 -107 59 -107 42 0 60 28 60 93 0 48 -4 59 -22 71 -13 8 -39 14 -59 13 l-35 -1 -3 -69z m79 -16 c0 -33 -5 -51 -14 -54 -21 -8 -26 2 -26 55 0 41 3 48 20 48 17 0 20 -7 20 -49z"/>
 <path d="M2618 3143 c-18 -21 -29 -81 -16 -89 5 -3 6 -10 2 -15 -3 -5 2 -21 10 -34 29 -45 90 -25 85 27 -1 13 1 35 6 51 16 57 -50 102 -87 60z m52 -43 c0 -21 -24 -28 -35 -10 -8 14 3 30 21 30 8 0 14 -9 14 -20z m-2 -72 c-6 -18 -28 -21 -28 -4 0 9 7 16 16 16 9 0 14 -5 12 -12z"/>
 <path d="M3107 2046 c-52 -19 -112 -62 -153 -110 -61 -71 -42 -89 50 -47 l65 29 -20 -37 c-23 -45 -36 -141 -18 -141 36 0 92 110 88 174 -2 30 4 53 19 78 22 35 29 68 15 68 -5 -1 -25 -7 -46 -14z"/>
 <path d="M2942 1854 c-69 -15 -142 -53 -171 -90 -10 -13 -22 -20 -26 -16 -5 4 -5 2 -2 -4 9 -16 120 0 169 26 l43 22 -22 -23 c-29 -32 -75 -133 -62 -137 15 -6 86 44 104 72 19 29 47 126 36 126 -4 0 -13 -6 -21 -12 -10 -9 -9 -6 1 7 23 30 31 45 22 44 -4 -1 -36 -7 -71 -15z"/>
 <path d="M1870 1835 c24 -27 24 -27 3 -16 -27 14 -28 10 -8 -57 11 -37 27 -60 57 -86 35 -30 78 -48 78 -31 0 11 -27 64 -51 101 l-28 40 47 -22 c45 -23 132 -33 132 -16 0 12 -50 56 -92 80 -21 11 -66 24 -100 28 l-63 7 25 -28z"/>
 <path d="M2025 1702 c22 -19 30 -29 17 -22 -29 14 -35 10 -27 -23 8 -29 58 -78 98 -95 42 -18 31 25 -21 81 l-26 27 32 -11 c18 -6 32 -17 32 -25 0 -8 8 -14 18 -14 13 0 14 -2 3 -9 -18 -12 -1 -42 43 -76 65 -49 78 -22 16 36 l-40 38 36 -15 c36 -15 114 -11 114 5 0 12 -54 38 -95 46 -23 5 -33 10 -22 12 9 3 17 8 17 12 0 16 -98 52 -165 60 l-69 8 39 -35z"/>
 <path d="M2746 1719 c-51 -12 -98 -41 -92 -56 3 -8 -6 -15 -22 -19 -37 -9 -82 -33 -82 -43 0 -16 57 -23 97 -12 37 10 37 10 17 -7 -31 -25 -60 -72 -44 -72 40 0 136 99 98 100 -7 0 -5 5 6 11 14 9 15 13 5 19 -9 6 -4 11 17 16 16 4 41 13 57 21 15 7 27 11 27 9 0 -3 -14 -13 -30 -21 -47 -24 -90 -105 -57 -105 47 0 138 111 107 130 -9 5 -9 9 -1 14 39 24 -24 33 -103 15z"/>
 <path d="M2246 1556 c13 -34 126 -51 138 -20 8 21 8 24 -5 24 -5 0 -7 -4 -4 -10 9 -15 -8 -12 -31 5 -25 19 -105 20 -98 1z"/>
 <path d="M2523 1555 c-51 -22 -42 -38 18 -33 34 4 58 12 72 27 l21 21 -39 0 c-22 -1 -55 -7 -72 -15z"/>
 <path d="M1337 3742 c-29 -30 -35 -46 -15 -40 13 5 68 -53 68 -71 0 -23 -40 -10 -62 20 -13 17 -24 35 -24 40 -1 5 -2 12 -3 16 -1 9 -82 -77 -139 -145 -40 -49 -35 -62 30 -62 44 0 70 -9 62 -21 -3 -5 -17 -9 -32 -9 l-26 0 22 -22 22 -23 45 50 c25 28 45 53 45 56 0 9 -55 19 -101 19 -22 0 -39 3 -39 6 0 15 30 32 49 27 25 -6 27 4 4 29 -15 17 -15 18 8 18 30 0 125 -105 121 -132 -4 -25 7 -22 40 9 l28 27 -32 33 c-22 23 -27 33 -17 33 21 0 49 32 49 56 0 11 -13 33 -30 49 -16 16 -30 37 -30 47 0 25 -12 23 -43 -10z"/>
 <path d="M3605 3620 c-27 -11 -60 -19 -73 -20 l-23 0 27 -35 c14 -19 33 -35 41 -35 8 0 11 5 8 10 -6 10 43 35 52 27 2 -2 -1 -16 -6 -30 -7 -18 -15 -25 -26 -21 -23 9 -18 -10 10 -36 22 -21 30 -20 26 3 -1 4 10 34 23 68 25 59 25 90 2 88 -6 0 -33 -9 -61 -19z"/>
 <path d="M3414 3606 c-10 -26 4 -48 28 -44 17 2 23 10 23 28 0 18 -6 26 -23 28 -13 2 -25 -3 -28 -12z"/>
 <path d="M3683 3508 c-32 -35 -37 -64 -17 -97 20 -34 53 -52 83 -44 27 7 26 20 -4 65 -22 33 -23 36 -6 41 29 7 51 -11 51 -43 0 -36 17 -40 26 -5 7 27 -25 89 -52 99 -31 12 -61 6 -81 -16z m29 -83 c0 -5 -5 -11 -11 -13 -6 -2 -11 4 -11 13 0 9 5 15 11 13 6 -2 11 -8 11 -13z"/>
 <path d="M1031 3485 c-51 -58 -53 -112 -5 -102 16 3 24 0 24 -9 0 -8 8 -14 18 -14 9 0 22 -10 27 -22 12 -27 49 -35 72 -16 20 16 63 84 63 98 0 6 -6 10 -12 8 -7 -1 -24 4 -37 11 -21 12 -26 10 -58 -21 l-34 -33 22 40 c48 87 -15 134 -80 60z m44 -25 c0 -15 -31 -37 -40 -28 -4 3 -1 16 5 28 12 22 35 23 35 0z m95 -96 c0 -12 -4 -12 -20 -4 -11 6 -20 17 -20 26 0 12 4 12 20 4 11 -6 20 -17 20 -26z"/>
 <path d="M3840 3395 c0 -19 -74 -57 -94 -49 -9 3 -16 1 -16 -4 0 -18 23 -62 32 -62 4 0 8 -8 8 -19 0 -28 28 -47 48 -34 26 16 27 44 3 50 -12 3 -21 8 -21 12 0 13 70 41 86 34 18 -7 18 -7 -11 50 -19 38 -35 48 -35 22z"/>
 <path d="M972 3276 c-47 -94 -49 -101 -26 -92 20 8 94 -30 94 -49 0 -28 21 -15 38 23 10 20 25 49 35 64 23 34 11 60 -40 84 -19 10 -38 26 -41 36 -2 10 -7 18 -11 18 -4 0 -26 -38 -49 -84z m78 -21 c32 -17 38 -32 16 -41 -18 -7 -72 21 -79 41 -8 20 24 20 63 0z"/>
 <path d="M3903 3258 c-28 -14 -30 -28 -4 -28 20 0 51 -25 51 -41 0 -17 -25 -9 -49 16 -40 43 -81 27 -81 -31 0 -18 5 -36 10 -39 6 -3 10 -15 10 -26 0 -24 20 -25 46 -1 10 9 29 16 41 14 15 -2 27 5 39 23 17 25 16 28 -7 76 -26 53 -24 52 -56 37z m-23 -108 c8 -16 8 -20 -3 -20 -18 0 -39 24 -30 33 11 12 22 8 33 -13z"/>
 <path d="M912 3158 c-7 -7 -12 -24 -12 -39 0 -15 -7 -32 -15 -39 -18 -15 -20 -51 -3 -68 20 -20 45 -14 72 19 16 19 32 29 41 25 23 -8 18 -26 -6 -23 -27 3 -49 -27 -31 -45 18 -18 59 9 72 48 15 44 1 67 -50 88 -22 9 -40 23 -40 31 0 18 -12 19 -28 3z m33 -88 c3 -5 -3 -10 -14 -10 -12 0 -21 5 -21 10 0 6 6 10 14 10 8 0 18 -4 21 -10z"/>
 <path d="M3980 3107 c0 -7 -20 -20 -45 -29 -25 -10 -45 -13 -45 -8 0 6 -7 10 -16 10 -11 0 -14 -5 -10 -16 3 -9 9 -27 12 -40 7 -29 6 -29 71 -4 29 11 59 17 68 14 19 -8 19 7 1 51 -15 34 -36 47 -36 22z"/>
 <path d="M3806 3024 c-7 -19 10 -44 29 -44 19 0 36 25 29 44 -3 9 -16 16 -29 16 -13 0 -26 -7 -29 -16z"/>
 <path d="M845 2978 c-11 -32 -22 -98 -17 -103 10 -10 22 -5 22 11 0 12 7 14 33 9 41 -9 41 -8 31 -48 -9 -32 -10 -33 -41 -25 -20 5 -33 15 -33 24 0 33 -24 6 -36 -42 -13 -53 -4 -81 18 -51 12 15 18 15 80 0 47 -12 68 -22 71 -35 9 -34 24 -18 36 38 13 58 8 80 -12 53 -12 -15 -59 -12 -58 4 1 4 1 18 1 32 0 22 4 25 32 23 20 -2 33 -9 36 -20 8 -33 19 -19 31 39 11 56 7 80 -9 53 -7 -11 -18 -12 -67 -1 -87 19 -93 21 -93 37 0 17 -19 19 -25 2z"/>
 <path d="M3900 2975 c0 -8 -6 -15 -14 -15 -17 0 -25 -18 -18 -42 2 -11 14 -18 28 -18 18 0 25 -8 33 -37 6 -21 11 -46 11 -55 0 -10 7 -18 15 -18 8 0 15 4 15 9 0 5 13 4 30 -2 l30 -11 -23 -13 c-12 -7 -30 -10 -39 -7 -20 6 -25 -21 -8 -46 8 -12 12 -12 18 -3 4 7 39 34 77 60 37 27 73 55 78 64 15 24 0 71 -21 67 -13 -3 -16 -13 -15 -41 1 -20 -1 -37 -5 -37 -4 0 -36 8 -71 18 -47 13 -66 24 -72 40 -10 25 -5 29 49 38 35 5 42 4 42 -10 0 -9 4 -16 9 -16 16 0 20 29 10 60 -12 33 -30 37 -89 20 -22 -6 -38 -6 -44 0 -14 14 -26 12 -26 -5z"/>
 <path d="M920 2239 c-25 -41 -66 -61 -80 -39 -10 16 -53 3 -47 -15 4 -8 -9 -17 -34 -24 -48 -15 -66 -44 -48 -78 7 -13 24 -26 38 -29 14 -3 35 -10 46 -16 15 -9 21 -7 30 8 15 27 55 67 61 61 3 -3 1 -15 -6 -26 -8 -15 -8 -21 0 -21 23 0 48 21 58 48 8 22 24 34 81 56 41 17 71 35 71 43 0 41 -40 68 -65 44 -6 -5 -20 -12 -32 -16 -20 -5 -23 -3 -23 19 0 38 -21 31 -50 -15z"/>
 <path d="M4027 2223 c-31 -61 -64 -71 -69 -21 -2 28 -8 34 -30 36 -22 3 -29 -2 -33 -21 -6 -20 -13 -25 -39 -24 -43 1 -96 -37 -96 -69 0 -29 5 -29 56 -5 44 22 54 13 30 -25 -30 -45 8 -62 42 -19 24 30 32 31 32 5 0 -22 20 -26 38 -8 7 7 12 8 12 3 0 -6 -12 -18 -26 -29 -20 -14 -36 -17 -70 -12 -40 5 -44 4 -50 -18 -10 -40 11 -64 61 -72 34 -5 51 -2 71 11 21 13 24 19 13 26 -10 6 -11 11 -2 20 8 8 17 7 34 -4 31 -20 99 -33 99 -19 0 6 -10 18 -22 26 -22 16 -22 16 10 16 17 0 32 4 32 9 0 5 17 7 39 4 24 -3 41 -1 46 6 11 18 -16 43 -42 38 -12 -2 -20 0 -17 4 3 5 14 9 24 9 10 0 22 5 26 12 11 18 -34 48 -72 48 l-34 0 7 45 c6 46 -6 75 -32 75 -7 0 -24 -21 -38 -47z m28 -56 c-4 -15 -14 -32 -23 -39 -15 -11 -15 -11 -5 2 7 10 8 21 3 30 -6 9 -3 18 8 26 22 16 24 12 17 -19z"/>
 <path d="M960 2085 l-64 -32 -3 -52 c-4 -60 2 -62 85 -31 69 26 74 26 70 -11 -3 -26 -10 -33 -53 -51 -136 -56 -159 -71 -117 -80 21 -5 147 18 184 33 54 22 58 118 8 164 -20 18 -23 18 -73 2 -53 -17 -50 -12 23 33 41 25 55 61 23 59 -10 0 -47 -15 -83 -34z"/>
 <path d="M783 2004 c-61 -35 -78 -59 -48 -70 8 -3 24 1 37 10 27 19 36 20 35 4 -1 -36 5 -48 22 -48 20 0 37 32 26 50 -3 5 1 22 9 38 11 22 12 32 3 41 -15 15 -13 15 -84 -25z"/>
 <path d="M3590 1584 c-52 -22 -90 -63 -96 -104 -6 -34 -7 -35 -47 -32 -57 5 -100 -27 -91 -66 9 -38 11 -38 37 -14 24 22 45 26 84 16 19 -5 20 -9 11 -30 -15 -33 -5 -39 39 -26 35 11 40 10 68 -17 67 -63 105 -76 105 -38 0 15 -13 33 -39 53 -39 29 -45 50 -11 39 24 -8 38 42 16 63 -14 15 -24 13 -90 -14 -17 -7 -19 -4 -13 29 3 21 21 56 41 81 33 39 47 77 29 76 -5 -1 -24 -8 -43 -16z"/>
 <path d="M1319 1563 c-8 -2 -21 -20 -29 -41 -16 -45 -65 -116 -105 -153 -16 -15 -27 -31 -23 -34 35 -36 210 169 191 223 -5 12 -7 13 -34 5z"/>
 <path d="M1189 1471 c-30 -31 -38 -61 -16 -61 19 0 80 67 73 79 -11 18 -26 13 -57 -18z"/>
 <path d="M1369 1418 c-14 -13 -36 -24 -49 -25 -33 -3 -53 -26 -56 -65 -1 -18 -5 -43 -9 -55 -6 -19 -4 -23 13 -23 27 0 147 133 147 162 0 30 -18 32 -46 6z"/>
 <path d="M1456 1350 c-3 -17 -24 -49 -47 -73 -23 -23 -35 -33 -25 -21 9 12 14 28 10 38 -8 20 -8 20 -43 1 -26 -13 -28 -19 -26 -62 2 -51 13 -61 59 -49 29 7 166 146 166 167 0 19 -20 29 -60 29 -23 0 -29 -5 -34 -30z"/>
 <path d="M2860 1161 c-37 -36 -39 -71 -7 -143 29 -65 43 -77 85 -71 23 4 32 10 32 24 0 11 -7 22 -15 25 -8 4 -15 17 -15 30 0 28 -28 44 -40 23 -6 -9 -11 -5 -16 15 -8 33 2 45 47 52 32 6 35 4 56 -40 13 -25 27 -46 33 -46 14 0 2 76 -19 120 -15 32 -20 35 -64 38 -41 3 -51 -1 -77 -27z"/>
 <path d="M2126 1154 c-9 -8 -18 -25 -20 -37 -3 -12 -12 -60 -21 -107 -9 -47 -18 -87 -21 -89 -11 -11 -12 9 -2 42 6 20 8 40 4 44 -13 13 -41 -14 -54 -52 -11 -35 -11 -40 13 -71 30 -40 31 -44 5 -37 -37 10 -22 -29 31 -79 28 -26 55 -48 59 -48 4 0 12 11 18 25 10 21 9 28 -8 45 -32 32 -23 41 19 18 58 -31 73 -20 66 44 -11 92 -13 98 -40 98 -29 0 -29 -2 -10 114 8 49 12 93 9 97 -8 14 -31 11 -48 -7z m32 -285 c4 -33 3 -33 -16 -16 -12 11 -18 26 -15 38 8 30 28 17 31 -22z"/>
 <path d="M2707 1143 c-4 -3 -7 -17 -7 -30 0 -20 -3 -22 -19 -13 -30 16 -41 12 -41 -15 0 -20 6 -25 34 -30 33 -7 34 -7 20 -33 -14 -27 -11 -56 9 -80 9 -11 14 -9 29 10 12 15 16 17 12 6 -3 -10 -1 -18 5 -18 6 0 11 -8 11 -18 0 -10 5 -23 12 -30 8 -8 8 -15 0 -25 -9 -10 -8 -18 2 -33 13 -16 18 -17 48 -7 18 7 43 10 56 7 30 -8 28 10 -3 30 -14 9 -25 23 -25 31 0 8 -8 19 -17 24 -17 10 -17 10 0 11 9 0 17 6 17 13 0 22 -46 92 -59 89 -7 -1 -9 2 -6 8 4 6 0 19 -8 28 -8 9 -18 28 -22 42 -10 33 -33 49 -48 33z"/>
 <path d="M1897 1092 c-36 -89 -50 -252 -22 -252 9 0 15 10 16 28 l1 27 7 -30 c5 -20 3 -33 -6 -38 -21 -13 -15 -32 13 -48 23 -12 27 -11 39 4 7 10 12 37 11 61 -1 33 2 43 14 42 11 -1 14 8 12 37 -2 23 2 37 8 37 18 0 5 81 -14 96 -10 7 -14 18 -10 28 8 20 -12 46 -36 46 -11 0 -23 -14 -33 -38z"/>
 <path d="M2885 900 c-8 -13 3 -30 21 -30 8 0 14 -8 14 -18 0 -23 40 -62 63 -62 20 0 22 21 5 38 -8 8 -8 15 0 24 15 18 3 34 -33 42 -16 4 -37 9 -47 12 -9 3 -19 0 -23 -6z"/>
 </g>

</svg>