<svg xmlns="http://www.w3.org/2000/svg" width="456.758" height="50.966" viewBox="0 0 456.758 50.966">
  <path id="路径_9" data-name="路径 9"
    d="M19.551,29.219H18.477q-.43.43-.215.645v.43a14.045,14.045,0,0,0,.859,1.5,2.552,2.552,0,0,1-1.289,1.5,8.311,8.311,0,0,0-1.5,1.074,1.238,1.238,0,0,1-.43-.859,2.644,2.644,0,0,1,.537-.967,9.549,9.549,0,0,1,.967-1.182q-.215-.43-.43-.215Q15.254,33.3,12.891,36.2a10.214,10.214,0,0,0-2.578,5.049A2.063,2.063,0,0,0,11.387,43.4q.215,0,.43-.43.645-5.156,5.8-8.594l.215.215a3.732,3.732,0,0,1,.645,2.578,3.889,3.889,0,0,1-1.719,3.223q-1.5.43-1.5,1.5a14.864,14.864,0,0,1,1.719-.43q.645.215.645,1.289a3.464,3.464,0,0,1-1.289,2.793q-1.289,1.074-2.363,1.934-.43.215,0,.43a6.459,6.459,0,0,0,1.074-.215q0-.215,1.074-.215.43.215,1.5.645.215.645,0,.645a29.966,29.966,0,0,1-4.512,5.8,2.7,2.7,0,0,0-.645,1.074,2.332,2.332,0,0,0-.859.43q-.859,0-.859,1.289-.215.859.859,1.719a15.551,15.551,0,0,0,7.09-3.76q3.223-2.9,6.016-5.908a.619.619,0,0,0-.43-.215A69.487,69.487,0,0,1,15.684,55a1.238,1.238,0,0,1-.859.43q-.645-.215-.43-.645a36.813,36.813,0,0,1,4.619-5.479q2.9-2.9,3.33-4.619a2.465,2.465,0,0,0-2.363-1.934.866.866,0,0,1-.859-.43v-.43A2.919,2.919,0,0,1,21.27,39.1q.645,0,1.074-.859l.645-1.289a3.429,3.429,0,0,1,1.5-1.934q.859-.645,2.041-1.719a4.111,4.111,0,0,0,1.4-2.148A1.825,1.825,0,0,0,26,29.863q-1.5.215-2.578.43a13.318,13.318,0,0,0-2.578.859Q19.121,31.152,19.551,29.219Zm4.727,1.5h.43q.215,0,.43.859A7.612,7.612,0,0,1,23.848,34.7l-1.934,2.9a.949.949,0,0,1-1.5.215,1.732,1.732,0,0,1-.859-1.289Q19.98,31.152,24.277,30.723ZM21.055,26a.269.269,0,0,0,0,.43,58.267,58.267,0,0,0,5.8-2.148q.215-.215,0-.645a9.537,9.537,0,0,0-1.719-.859,1.649,1.649,0,0,1-.645.215A88.474,88.474,0,0,1,6.23,30.723q-.43.215,0,.43a1.933,1.933,0,0,0,1.719.645,6.924,6.924,0,0,0,3.008-.859A23.993,23.993,0,0,0,14.18,29q1.5-.859,3.115-1.826A8.94,8.94,0,0,1,21.055,26ZM15.9,18.262v-.215q-1.719.645-1.934-.859h-.43a12.851,12.851,0,0,0-1.289,4.727,1.343,1.343,0,0,0,1.289,1.719.871.871,0,0,0,.859-.752q.215-.752.43-1.4A8.577,8.577,0,0,1,15.9,18.262Zm6.445,2.793q-.215.43.215.215a23.73,23.73,0,0,0,3.33-3.008A6.945,6.945,0,0,0,27.93,14.18a3.528,3.528,0,0,0-3.437-3.008q0,.215,0,.215.43.215.645,1.719A20.417,20.417,0,0,1,22.344,21.055Zm13.965,4.727q-.43.215,0,.43a2.823,2.823,0,0,1,1.934,2.363,8.667,8.667,0,0,1-2.363,5.156,7.258,7.258,0,0,1-4.727,2.148q-.43.215,0,.215a3.859,3.859,0,0,0,2.363.645,3.687,3.687,0,0,1,1.5.215q.43.215.215.43a85.526,85.526,0,0,1-8.379,16.543q-.215.215.215,0a30.968,30.968,0,0,0,6.338-7.734,75.19,75.19,0,0,0,4.4-9.023,3.846,3.846,0,0,1,2.148-2.578,3.367,3.367,0,0,0,.859-.645,9.522,9.522,0,0,1,3.008-.43q3.437.215,3.438,4.082A29.316,29.316,0,0,1,44.15,49.2q-2.9,6.016-6.553,6.66A7.218,7.218,0,0,1,34.8,54.57q-.43,0-.215.43a9.738,9.738,0,0,1,3.223,2.578,2.513,2.513,0,0,0,2.148.859q3.437-.645,6.016-7.09A36.342,36.342,0,0,0,48.77,39.316a9.566,9.566,0,0,0-.859-4.3q-.859-1.719-3.652-1.934-2.793.215-4.941.43-.215,0-.215-.43a27.689,27.689,0,0,0,.215-3.437Q39.1,26.211,36.309,25.781ZM58.652,36.309h.43a9.594,9.594,0,0,0,1.719-6.23,21.571,21.571,0,0,0-.645-3.867q-.215-.859-.43-.43a16.116,16.116,0,0,1-1.719,3.008,10.316,10.316,0,0,0-.645,3.652A5.278,5.278,0,0,0,58.652,36.309ZM69.609,25.566a2.357,2.357,0,0,1,2.148-1.934q1.5.215,2.363.43a2.992,2.992,0,0,0,1.289.215.842.842,0,0,0,.645-.859,3.34,3.34,0,0,0-2.363-1.074,2.237,2.237,0,0,0-1.289.215q-.43.43-.645.215a9.536,9.536,0,0,1-1.719-.859,22.476,22.476,0,0,1,1.289-3.652,1.907,1.907,0,0,1,.215-.859,10.689,10.689,0,0,0-.967-2.578,2.825,2.825,0,0,0-2.041-1.719,4.611,4.611,0,0,0-1.5.859q-.43.215.215.967a14.769,14.769,0,0,1,1.074,1.4,9.537,9.537,0,0,1,.859,1.719l-.43,6.016A65.114,65.114,0,0,1,67.676,33.3q-.43,3.223-.645,6.66A38.468,38.468,0,0,1,65.1,50.7a1.421,1.421,0,0,0-.215,1.289,7.132,7.132,0,0,0,.645,2.793,3.95,3.95,0,0,0,2.148,2.148q.43,0,.537-1.182t.107-2.041V44.9A146.148,146.148,0,0,1,69.609,25.566Zm13.965,3.867q0,.215.645-.645a39.385,39.385,0,0,0,6.016-8.809q.859-1.934,3.438-1.719h2.793a1.231,1.231,0,0,0,1.5-.645,2.221,2.221,0,0,0-2.148-1.289,9.068,9.068,0,0,0-2.793.859,3.516,3.516,0,0,1-.859.215q-1.934-.215-1.719-1.934-.215-2.793-1.5-3.652-1.289-.645-1.074-.645.215,3.008.43,6.66a2.651,2.651,0,0,1-1.289,1.934,4.334,4.334,0,0,1-2.793.859q-1.074.215-.859.43a1.673,1.673,0,0,0,1.5.645,9.958,9.958,0,0,0,1.934-.215A18.339,18.339,0,0,1,83.574,29.434Zm1.719,15.9-.215.43-3.008.859a2.215,2.215,0,0,1-.43-.859,4.055,4.055,0,0,1,.215-1.289,6.518,6.518,0,0,0,.215-1.934V33.516a5.133,5.133,0,0,0-1.289-3.437q-.215,0-.43.43a13.091,13.091,0,0,0-.645,3.652v4.3a34.019,34.019,0,0,0,1.074,6.66l.43.859a1.711,1.711,0,0,1-1.182,1.4,5.111,5.111,0,0,1-1.4.322,13.9,13.9,0,0,0-4.3,1.5q-.645.43.645.215A24.211,24.211,0,0,0,82.07,47.7q1.934-.43,1.934.43a3.531,3.531,0,0,1-.107.859,17.756,17.756,0,0,1-.752,1.934,36.643,36.643,0,0,1-5.156,5.8q-.215.43.859-.215a13.947,13.947,0,0,0,4.082-2.578,9.01,9.01,0,0,0,2.578-3.437q.859-3.223,1.719-3.867l7.09-.859q.215,1.5,1.074,1.719a2.329,2.329,0,0,0,1.719-1.074,2.179,2.179,0,0,1,2.363-.859,24.641,24.641,0,0,1,3.008.215h2.793a1.225,1.225,0,0,0,1.289-.43q0-.645-1.289-1.182a15.788,15.788,0,0,0-2.148-.752,9.039,9.039,0,0,0-2.148.215H98.828q-.859.215-.859-.43.215-7.52.43-15.254.215-3.223-2.793-3.223a27.475,27.475,0,0,0-4.3.859q-1.074.43-.859.43a34.993,34.993,0,0,0,3.867-.215q1.289.215,1.289,2.148-.215,7.3-.215,14.395A2.892,2.892,0,0,1,94.1,44.9a20.49,20.49,0,0,1-7.3.859Q86.152,45.547,85.293,45.332ZM88.3,31.152q-.43.645,0,.645a6.256,6.256,0,0,0,1.5-.322,2.631,2.631,0,0,0,1.5-.967q.43-.215.215-.43Q88.945,30.293,88.3,31.152Zm-.215,4.082q-.43.43,0,.43a3.92,3.92,0,0,0,2.148-.215,1.649,1.649,0,0,0,.215-.645A2.482,2.482,0,0,0,88.086,35.234Zm2.148,4.727a.269.269,0,0,0,0-.43,15.061,15.061,0,0,0-1.611.107q-.967.107-.752.967A5.348,5.348,0,0,0,90.234,39.961Zm7.949,19.121q1.074.43,1.5-1.5v-1.5A3.44,3.44,0,0,0,97.861,53.6q-1.611-.967-3.115-1.826-1.5-.43-.43.645.645,1.5,1.719,3.545A12.971,12.971,0,0,0,98.184,59.082Zm26-37.812q0,.215.43.215,1.5-.215,3.76-.752t2.471-1.182a3.591,3.591,0,0,0-3.223-2.148q-2.363-.215-3.437-.215V17.4l.645.322a1.629,1.629,0,0,1,.859.967A12.958,12.958,0,0,1,124.18,21.27Zm4.3,23.633q0-.43-.215-.215a14.89,14.89,0,0,1-2.148,2.148q-1.5,1.289-1.934,1.289-.43.215-.645-.859a30.779,30.779,0,0,1,1.5-9.131,42.037,42.037,0,0,1,2.793-7.2,4.458,4.458,0,0,0,.859-2.578q-.215,0-.645-.752a1.983,1.983,0,0,0-1.074-.967q-.43,0-.859.645a25.727,25.727,0,0,1-6.123,4.834,15.4,15.4,0,0,1-6.123,2.256q-.43.215,0,.43a4.694,4.694,0,0,0,3.652,1.719,2.933,2.933,0,0,0,2.148-1.289,7.9,7.9,0,0,1,3.223-1.719h.645q-.43,4.082-.859,7.949a48.487,48.487,0,0,0-1.5,8.164,8.737,8.737,0,0,0,.859,3.76,9.662,9.662,0,0,0,1.719,2.686q.215.43.43,0a3.516,3.516,0,0,0,.43-1.934,11.6,11.6,0,0,1,2.148-4.941A14.932,14.932,0,0,0,128.477,44.9Zm11.172-32.441a3.5,3.5,0,0,1,.967.322,1.825,1.825,0,0,1,.967.752,41.746,41.746,0,0,0,.859,6.982,58.261,58.261,0,0,0,1.289,5.908q-.215.859-1.934,1.611t-3.008,1.4a7.475,7.475,0,0,0-3.223,1.5q-.215.215.215.215a12.813,12.813,0,0,0,4.619-1.074q2.686-1.074,3.545-1.5a8.336,8.336,0,0,0,.43,1.074q-2.148,2.793-4.512,5.479a24.033,24.033,0,0,0-2.793,3.545q-.43,1.289,0,1.074a2.643,2.643,0,0,1,1.074-.43,2.488,2.488,0,0,1,1.719-.43q2.578-.215,2.148,3.867-.859,7.09-6.016,9.238h.215a8.429,8.429,0,0,0,5.479-1.826A6.977,6.977,0,0,0,144.16,44.9a13.3,13.3,0,0,0-.752-4.619,3.6,3.6,0,0,0-2.686-2.471q-1.5-.215-1.074-1.5.645-.645,2.363-2.793t2.578-3.437l2.148,4.3a46.171,46.171,0,0,0,2.793,6.875,1.542,1.542,0,0,1,.645,1.074,19.253,19.253,0,0,1-1.719,3.438q0,.43.215.215a3.6,3.6,0,0,1,1.289-.752,1.577,1.577,0,0,1,1.5.107,66.11,66.11,0,0,0,5.586,7.09,14.557,14.557,0,0,0,2.041,2.9,4.922,4.922,0,0,0,3.115,1.826,2.176,2.176,0,0,0,1.934-1.5,3.516,3.516,0,0,1-.215-.859,14,14,0,0,1-1.074-3.223l-.215-.215a5.4,5.4,0,0,1-.752,1.4q-.537.752-1.182.322a17.659,17.659,0,0,1-4.512-4.189,24.158,24.158,0,0,1-3.437-5.049q-.215-.43.537-2.256a25.7,25.7,0,0,0,1.182-3.545,6.661,6.661,0,0,0,.43-1.5,6.7,6.7,0,0,0-.967-2.256,4.179,4.179,0,0,0-1.182-1.4q-.43.215-.215.215a2.332,2.332,0,0,1,.43.859,9.751,9.751,0,0,1-1.719,4.941q-.43.859-.859-.43a42.138,42.138,0,0,1-2.578-4.512A11.049,11.049,0,0,1,146.523,29q0-.645.967-1.182a10.024,10.024,0,0,1,1.611-.752,2.071,2.071,0,0,0,1.074-.859,1.848,1.848,0,0,0-1.719-1.719,5.877,5.877,0,0,1-1.289.215,1.907,1.907,0,0,1-.859.215q-1.074-.215-1.5-3.545a42.923,42.923,0,0,1-.43-5.049,7.154,7.154,0,0,0-1.074-3.223q-.859-1.289-3.652-1.074Q139,12.461,139.648,12.461ZM128.906,51.992q-.215.215.215,0A9.655,9.655,0,0,0,133.1,47.48a14.743,14.743,0,0,0,1.182-5.8V38.242a13.408,13.408,0,0,0-.859-3.33q-.645-1.611-1.5-1.826a.19.19,0,0,0-.215.215,9.566,9.566,0,0,1,.859,4.3Q131.914,46.621,128.906,51.992Zm22.129-33.945q-.215.215,0,.215.43.43,2.363,2.148.645,1.289,1.5,2.686t1.719.967a2.652,2.652,0,0,0,.645-1.5,4.059,4.059,0,0,0-2.471-3.115A12.353,12.353,0,0,0,151.035,18.047Zm38.242,5.371a.269.269,0,0,0-.43,0,2.061,2.061,0,0,1,.645,1.5A1.2,1.2,0,0,1,188.2,26a16.673,16.673,0,0,0-2.148.859,3.738,3.738,0,0,1-1.5.645.57.57,0,0,1-.645-.645,2.088,2.088,0,0,1,.43-1.074l.859-2.148a13.171,13.171,0,0,1,1.289-2.363,18.208,18.208,0,0,0,1.719-5.156,2.86,2.86,0,0,0-1.5-2.041,7.845,7.845,0,0,0-2.363-.967v.43a2.1,2.1,0,0,1,.43,1.5q-.43,1.5-.859,3.438-1.5,4.941-2.793,9.238a8.015,8.015,0,0,1-5.371,4.082,37.14,37.14,0,0,1-6.23,1.289v.43a38.721,38.721,0,0,0,4.082.859,10.646,10.646,0,0,0,3.223-1.074l2.148-.537a9.033,9.033,0,0,1,1.719-.322,5.346,5.346,0,0,1,1.289,2.363l1.719,2.578.215.43a4.261,4.261,0,0,1-1.4,1.611q-1.182.967-.752.967a15.936,15.936,0,0,1,3.223-.645,32.564,32.564,0,0,1,4.941.859,8.647,8.647,0,0,0,2.363.215v-.43a13.38,13.38,0,0,0-2.793-1.719,1.152,1.152,0,0,1-1.289-.859,6.788,6.788,0,0,1,1.719-3.867,11.461,11.461,0,0,0,1.289-6.016Q191.641,24.277,189.277,23.418ZM187.988,27.5q.43,0,.645.859a21.581,21.581,0,0,1-1.182,4.4q-.967,2.686-2.9,2.9a1.521,1.521,0,0,1-1.5-.967,4.97,4.97,0,0,1-.43-2.041,4.808,4.808,0,0,1,1.719-3.223A6.13,6.13,0,0,1,187.988,27.5Zm8.809-2.578h-.43a24.922,24.922,0,0,0-.859,6.445,8.324,8.324,0,0,0,.859,3.223q.859,1.934,1.5.645a17.779,17.779,0,0,0,.43-3.867A16.43,16.43,0,0,0,196.8,24.922Zm4.3-2.148q-.43.43,0,.43a15.188,15.188,0,0,1,3.652-1.5l1.719-.43a.993.993,0,0,1,.645,1.074,5.319,5.319,0,0,1-1.074,1.934q-1.074,1.934-2.041,3.867a7.863,7.863,0,0,0-.967,3.438v1.074a8.882,8.882,0,0,0,.107,1.182q.107.752-.322.967-.645.645-2.256,1.934t-.967,1.289a11.11,11.11,0,0,0,5.371-1.719q3.008-1.719,3.438-3.652a4.9,4.9,0,0,0-1.074-1.934q-.645-.43-.645-.859a4.647,4.647,0,0,1,1.074-2.363q1.074-1.5,2.363-3.008a6.529,6.529,0,0,0,2.148-3.867,3.429,3.429,0,0,0-3.223-3.008,7.916,7.916,0,0,0-4.3,2.041Q202.6,21.484,201.094,22.773Zm5.156,16.973a.269.269,0,0,0,0,.43q1.719.645,3.867,1.289a11.316,11.316,0,0,1,3.652,2.148,3.952,3.952,0,0,0,.752.967q.537.537.967-.107a14.046,14.046,0,0,1,.859-1.5,2.644,2.644,0,0,0-1.719-2.148,12.254,12.254,0,0,0-3.545-.859,33.757,33.757,0,0,0-3.437-.215Zm-6.66,3.867a.269.269,0,0,0,0-.43,11.133,11.133,0,0,0-1.826,1.182,2.887,2.887,0,0,1-1.611.752q-.645,0-.645-.43-1.074-.43-.859-.215a2.861,2.861,0,0,0-1.074,2.363,4.378,4.378,0,0,0,.322,1.5q.322.859.967.859t1.289-1.074a8.927,8.927,0,0,1,1.289-1.719Q198.516,45.117,199.59,43.613Zm1.934,3.652q-.43.215-.215.43a31.4,31.4,0,0,1,2.256,2.793,8.936,8.936,0,0,1,1.826,3.438,2.046,2.046,0,0,1-1.611,1.5,9.122,9.122,0,0,1-2.686.43,27.377,27.377,0,0,1-14.609-4.3,30.055,30.055,0,0,0-3.437-2.363v.43q7.3,8.379,17.617,8.594h3.652a15.885,15.885,0,0,0,4.189-1.289,4.45,4.45,0,0,0,2.9-3.008,4.952,4.952,0,0,0-1.719-1.289,10.626,10.626,0,0,1-2.148-1.5A31.019,31.019,0,0,1,201.523,47.266Zm-22.559,1.5a.269.269,0,0,0-.43,0,4.754,4.754,0,0,1-1.5,1.934,3.469,3.469,0,0,0-1.074,3.223,3.92,3.92,0,0,0,.107,2.041,1.675,1.675,0,0,0,.967,1.182q1.289-.645,1.289-2.793Q178.535,51.562,178.965,48.77Zm82.285-3.008h-.215a38.361,38.361,0,0,1-1.719,3.438q-.859,1.5-1.074,1.5-1.5-.215-1.074-1.074a67.4,67.4,0,0,1,1.4-9.346q1.182-5.693,1.826-8.271l3.867-1.934a3.915,3.915,0,0,0,2.793-2.793,2.608,2.608,0,0,0-1.719-1.5q-.43,0-.215.215l.43.859a4.138,4.138,0,0,1-2.578,2.9q-2.148.967-2.363.752,0-.43.537-3.437t.967-5.371a7.063,7.063,0,0,0,.215-1.719,5.319,5.319,0,0,0-1.074-1.934q-.859-1.074-1.074-.645a13.7,13.7,0,0,1,.43,1.934q-.43,3.437-.967,6.982a19.8,19.8,0,0,1-.967,4.4,10,10,0,0,1-3.975,1.719,10,10,0,0,0-3.975,1.719,1.5,1.5,0,0,0,1.719,1.289,3.3,3.3,0,0,0,1.289-.43q1.289-.645,3.008-1.611a10.14,10.14,0,0,1,1.934-.967q-1.074,4.941-1.719,9.99t-1.074,8.7a4.709,4.709,0,0,0-.645,1.289,5.054,5.054,0,0,0,1.4,3.33q1.4,1.611,2.256.752a22.535,22.535,0,0,0,1.289-5.049Q260.605,48.555,261.25,45.762Zm26-12.461a12.927,12.927,0,0,1-.967,4.941,6.4,6.4,0,0,1-3.115,3.438,37.365,37.365,0,0,1-4.189,1.934q-3.115,1.289-5.693,2.148-2.363.43-2.363,0h-.43a8.985,8.985,0,0,0-2.041.859q-1.182.645-1.182,1.074a1.685,1.685,0,0,0,1.289,1.719,4.009,4.009,0,0,0,2.256-1.182,13.741,13.741,0,0,1,2.686-1.826q1.5-.645,4.4-1.719a22.137,22.137,0,0,1,6.338-1.289q2.578.645,2.578,4.3V50.7q0,7.734-6.445,9.023-.43.215,0,.43A38.531,38.531,0,0,0,285.1,61.23q3.867-.645,4.082-7.09a30.894,30.894,0,0,0-1.719-9.453q-.645-.859-.215-1.289a1.785,1.785,0,0,1,1.719-.43h2.793a14.729,14.729,0,0,0,2.793.215,6.517,6.517,0,0,0,1.934.215q.43-.215.43-1.074a4.122,4.122,0,0,0-3.008-1.289,10.93,10.93,0,0,0-2.148.215,7.032,7.032,0,0,1-1.719.43,2.5,2.5,0,0,0-.43-.645q.215-2.578.43-5.371V33.3a21.312,21.312,0,0,0-1.289-8.057q-1.289-3.115-3.652-3.33a11.177,11.177,0,0,0-3.437.43q-.215.215-.215-.43a9.025,9.025,0,0,1,.859-3.652q.645-1.074,3.438-1.074a3.288,3.288,0,0,0,1.934-.215q1.289-.43,1.5-1.289-.43-1.074-2.363-1.074-2.578.215-4.082.43-.645,0-.645-.43V12.246a2.263,2.263,0,0,0-.859-1.934,1.862,1.862,0,0,0-1.719.537q-.859.752-1.5,1.4-.43.645,0,.645h1.074a4.973,4.973,0,0,1,.645,1.074,5.375,5.375,0,0,1-.645,2.793,9.351,9.351,0,0,1-2.686,1.934,10.426,10.426,0,0,1-5.264,1.289q-.43.215,0,.645a1.934,1.934,0,0,0,1.719.645,7.346,7.346,0,0,0,3.115-.645,3.113,3.113,0,0,1,2.041-.43q1.289.645,1.074,3.223-1.289.859-2.148,1.5a7.545,7.545,0,0,1-2.148,1.719,3.52,3.52,0,0,0-.537-.43q-.322-.215-.537.43-.859,1.5-2.471,4.4a12.037,12.037,0,0,0-1.611,5.908q.645,5.156,1.934,3.867a7.527,7.527,0,0,0,.43-2.363,16.535,16.535,0,0,1,1.719-8.594,9.546,9.546,0,0,1,4.3-3.652q.43,0,.43,1.611a8.082,8.082,0,0,1-.215,2.256,14.148,14.148,0,0,0-2.148,1.289q-.215.43,0,.43a4.171,4.171,0,0,0,1.289.322q.859.107,1.074.537a7.1,7.1,0,0,1-3.008,4.512.269.269,0,0,0,0,.43q0,1.719.859,1.934.215.215.859-.215l.645-.215a1.225,1.225,0,0,0,1.289.43,2.815,2.815,0,0,1,1.5-1.826q1.289-.752,2.578-1.4a2.672,2.672,0,0,0,1.934-.859q-.215-1.5-1.289-1.719-1.719-.43-1.719-1.719a2.059,2.059,0,0,1,.537-.859,3.315,3.315,0,0,1,.967-.859q1.5-.859,1.5-1.719a2.552,2.552,0,0,0-1.934-.43q-2.148,0-2.256-1.074t-.107-2.363a4.659,4.659,0,0,1,1.5-1.289,2.35,2.35,0,0,1,1.934-1.074,2.825,2.825,0,0,1,2.041,1.719,9.894,9.894,0,0,1,.967,3.223ZM280.8,35.449a.38.38,0,0,1-.43-.43,3.814,3.814,0,0,1,.43-1.719q.43-.859.859-.859a7.142,7.142,0,0,1,.43,1.719q.215,1.289-.43,1.289Zm-1.719,14.824q-.859.859-.645.859a3.474,3.474,0,0,0,2.793.43q.43,0,.43-1.289a2.549,2.549,0,0,0-1.5-1.5q-1.289-.645-1.5-.215A14.864,14.864,0,0,1,279.082,50.273Zm13.75-37.6v.215a3.429,3.429,0,0,1,1.5,1.934.57.57,0,0,0,.645.645,2.645,2.645,0,0,0,1.182-.43q.752-.43.537-1.074A7.705,7.705,0,0,0,292.832,12.676ZM325.7,17.4a1.384,1.384,0,0,0,0-1.074,5.185,5.185,0,0,0-3.652-.859h-4.3q-.43.215-.215.43a2.625,2.625,0,0,0,1.934,1.934,13.591,13.591,0,0,0,3.438,0A3.474,3.474,0,0,0,325.7,17.4ZM313.027,35.449q-1.074.215-.859-.645a16.177,16.177,0,0,0,1.934-7.3,8.336,8.336,0,0,1-.43-1.074q-.215-.645-.215-.43a29.749,29.749,0,0,1-4.727,9.238,5.047,5.047,0,0,0-1.5,3.008q0,2.578,3.008,2.793a5.408,5.408,0,0,0,3.008-2.148,72.884,72.884,0,0,1,6.016-5.371l.43.43q-.43,2.793-.859,6.875a4.415,4.415,0,0,1-1.611,2.9,23.765,23.765,0,0,0-2.686,2.686,29.474,29.474,0,0,1-3.008,3.008,6.225,6.225,0,0,0-2.148,2.793q.215,1.289,3.652,3.652a18.784,18.784,0,0,0,5.156,2.793.993.993,0,0,0,1.074-.645,103.256,103.256,0,0,1,1.074-15.039,2.893,2.893,0,0,1,1.074-1.934,6.81,6.81,0,0,1,1.934-2.578q.215-.645,0-.645a15.023,15.023,0,0,0-1.611,1.4q-.752.752-.752-.107.215-5.8,1.5-8.164,3.223-2.793,2.578-3.223a6.542,6.542,0,0,0-2.793-1.934q-1.074,0-1.182,1.182a21.375,21.375,0,0,1-.322,2.256,11.061,11.061,0,0,1-3.223,3.223A40.806,40.806,0,0,1,313.027,35.449Zm24.492-4.3q-1.074.215-.645-.43a23.246,23.246,0,0,1,8.164-12.461l.967-.967a5.33,5.33,0,0,0,.967-1.182,2.159,2.159,0,0,0-1.719-1.074,7.434,7.434,0,0,0-3.652,1.289,16.115,16.115,0,0,1-3.008,1.719,10.671,10.671,0,0,0-2.148,1.182,3.358,3.358,0,0,1-1.719.752q-.645,0-.645-.215a29.908,29.908,0,0,1,1.719-3.33,9.325,9.325,0,0,0,1.289-3.33,3.935,3.935,0,0,0-.859-1.826q-.645-.752-.859-.107a19.107,19.107,0,0,1-2.471,6.445q-1.826,3.008-3.115,5.156a2.942,2.942,0,0,0-1.074,1.719,3.274,3.274,0,0,0,.752,2.041q.752.967,1.4.322a26.921,26.921,0,0,1,9.668-7.734q.215,0,.43.645a66.39,66.39,0,0,0-7.627,15.684,51.083,51.083,0,0,0-2.9,16.328v2.363a8.245,8.245,0,0,0,2.578,6.016,1.457,1.457,0,0,0,1.074-.43,26.2,26.2,0,0,1-1.5-10.1,54.458,54.458,0,0,1,3.438-17.4q0-.43.645-.43a25.22,25.22,0,0,0,3.223.43,4.642,4.642,0,0,0,3.008-1.289,30.423,30.423,0,0,1,6.66-2.363,1.538,1.538,0,0,0,1.719-.859,1.967,1.967,0,0,0-1.182-.752,5.111,5.111,0,0,0-1.4-.322,6.1,6.1,0,0,0-3.223,1.074A40.394,40.394,0,0,1,337.52,31.152Zm-.645,7.3q-.43.645,1.934.645a15.657,15.657,0,0,0,2.578-.215,4.05,4.05,0,0,1,2.363-.215q.645.215.43,2.363-.43,1.289-2.9,2.041a14.837,14.837,0,0,1-4.189.752q-.43.215.537.752a5.575,5.575,0,0,0,2.686.537,9.194,9.194,0,0,1,.967.107q.752.107.537.537a9.2,9.2,0,0,1-5.371,4.512,1.523,1.523,0,0,0-1.074,1.5q.43,1.5,2.793,1.719,3.008-.43,8.164-1.074t5.8-1.719q-.215-.859-1.611-1.4t-1.611-.322q-1.074,1.5-2.148,1.074-1.719.215-1.5-.215a24.111,24.111,0,0,0,1.5-4.941,1.231,1.231,0,0,1,.645-1.5,1.015,1.015,0,0,0,1.074-.859q-.43-1.289-1.289-1.289a4.972,4.972,0,0,1-1.074-.645l-.215-2.148a2.717,2.717,0,0,1,1.5-1.289,3.5,3.5,0,0,0,.967-.322,1.041,1.041,0,0,0,.752-.967q-.215-.645-.967-.43a1.65,1.65,0,0,1-1.182,0q-.43-.215-.215-1.5a3.22,3.22,0,0,0-1.934-1.934q-1.5-.645-1.074.215a13.445,13.445,0,0,1,.43,3.652,1.934,1.934,0,0,1-1.719.645q-1.289.43-2.363.859A14,14,0,0,1,336.875,38.457Zm.43,12.676,4.3-3.437a3.744,3.744,0,0,1,1.934-1.074q.645,0,.645.859a7.312,7.312,0,0,1,0,2.578,8.894,8.894,0,0,1-4.512,1.289,4.926,4.926,0,0,1-1.5.43Q336.875,51.777,337.3,51.133Zm-25.566,1.934v-.645a21.044,21.044,0,0,1,2.793-3.76,14.085,14.085,0,0,1,3.008-2.9q.215-.215.645.43-.215,1.719-.537,5.049t-1.4,3.545A8.3,8.3,0,0,1,311.738,53.066ZM395.1,31.152q0,.43-.645.645A25.862,25.862,0,0,1,386.5,34.16a9.243,9.243,0,0,0-1.719.215q-1.074.215-1.074.645a2.16,2.16,0,0,0,2.363,1.719,5.137,5.137,0,0,0,2.686-.859q1.4-.859,2.9-1.719a96.931,96.931,0,0,1,16.328-3.437q.43,0,.43-.859a3.744,3.744,0,0,0-1.934-1.074,21.481,21.481,0,0,0-5.049,1.5,11.636,11.636,0,0,1-4.619,1.074,1.33,1.33,0,0,1-.43-1.5,2.517,2.517,0,0,1,2.363-3.008,2.065,2.065,0,0,0,1.934-1.289,2.332,2.332,0,0,0-.43-.859h-2.148q-.645-.43-.215-1.289,0-2.363,1.719-2.9a19.406,19.406,0,0,1,3.652-.752,7.582,7.582,0,0,0,3.008-.645q.215,0,0-.645a6.521,6.521,0,0,0-2.363-.645,22.791,22.791,0,0,0-4.727,1.289q-1.074,0-1.074-1.934a1.225,1.225,0,0,1,.43-1.289,21.035,21.035,0,0,0,.645-3.437,1.938,1.938,0,0,0-1.934-2.148,4.919,4.919,0,0,0-3.008,1.074q-.43.43.215.43a2.7,2.7,0,0,1,1.5,1.934q0,4.3-1.719,6.445t-5.8,2.578v.43q.43.43,1.719.215a4.92,4.92,0,0,0,2.578-.645q.859-.215,1.5-.43a1.391,1.391,0,0,1,.859,1.719q-.215,2.363-1.289,2.9a8.3,8.3,0,0,1-2.363.752q-.645.645,0,.645h2.578Q395.313,28.789,395.1,31.152Zm.215,18.691q-.215.43.43.215a15.338,15.338,0,0,1,3.867-1.289q1.5.215,1.289,2.578v2.363q.215,4.082-4.082,3.867v.645a5.935,5.935,0,0,1,4.512,3.008h.645a4.372,4.372,0,0,0,1.289-3.223l-.859-13.75a8.36,8.36,0,0,1,.215-3.223,15.658,15.658,0,0,0,.215-2.578q0-2.793-2.363-3.437a10.488,10.488,0,0,0-4.082,1.289q-.215.645.43.645.859-.215,2.793-.645,1.5.43,1.289,2.363v5.586q.215,1.5-.215,1.719-2.578.215-3.223-.859a1.987,1.987,0,0,1,0-1.289,4.507,4.507,0,0,0,.645-2.363,2.556,2.556,0,0,0-1.289-1.719q-.43-.215-.43.215a13.7,13.7,0,0,1,.43,1.934,4.145,4.145,0,0,1-.645,2.148.7.7,0,0,0-.215.859,2.357,2.357,0,0,0,.859,1.5l.43.859A10.1,10.1,0,0,1,395.313,49.844Zm-3.223-8.379q-.215-.645-.43,0a32.334,32.334,0,0,1-.859,5.371,18.338,18.338,0,0,0-1.289,6.875,5.88,5.88,0,0,0,1.5,4.3.425.425,0,0,0,.645-.215q.215-2.148.43-4.082ZM381.777,20.41q-.645-.215-.645.215a8.9,8.9,0,0,1-2.256,4.619q-2.041,2.471-3.115,2.686a.57.57,0,0,1-.645-.645,27.45,27.45,0,0,1,1.5-7.734,7.063,7.063,0,0,0,.215-1.719q-.215-3.008-2.578-3.437-2.578.215-2.578,2.363-.215.43.215.215.859-1.5,1.934-1.074.859.43.859,1.934a39.733,39.733,0,0,1-1.4,10.205,18,18,0,0,1-5.049,8.7,21.031,21.031,0,0,0-3.652,4.727.38.38,0,0,0,.43.43,28.735,28.735,0,0,1,5.371-3.437.269.269,0,0,1,0,.43A49.481,49.481,0,0,1,363.3,49.2q-.215.645.215.43a25.021,25.021,0,0,0,7.52-7.949q.215,0,.43.645a49.932,49.932,0,0,1-.859,6.23,4.05,4.05,0,0,0-.215,2.363,8,8,0,0,0,1.719,5.156q.43.43.645,0a8.781,8.781,0,0,0,.43-2.793V44.258a8.672,8.672,0,0,1,.43-4.727,1.244,1.244,0,0,1,.859-.215,13.518,13.518,0,0,1,2.041,1.611,2.758,2.758,0,0,0,2.041.752q.215.215.43-.859a3.233,3.233,0,0,0-2.578-2.148q-2.793,0-2.793-1.719a.871.871,0,0,1,.43-1.074,2.861,2.861,0,0,0,1.074-2.363q-.215-1.074-.43-2.363a2.323,2.323,0,0,1,1.5-2.471,18.84,18.84,0,0,0,3.008-1.4,5.22,5.22,0,0,0,3.223-3.652A9.205,9.205,0,0,0,381.777,20.41Zm-12.461,8.809q.215-.215-.215-.107a.522.522,0,0,1-.645-.322,6.131,6.131,0,0,1-.215-3.652.269.269,0,0,0-.43,0l-1.289,2.148a7,7,0,0,0-1.719,4.082,5.866,5.866,0,0,0,.645,3.008q0,.215.645,0A6.743,6.743,0,0,0,367.92,31.9,29.838,29.838,0,0,1,369.316,29.219Zm55-2.148q.215,0,0-.645a5.751,5.751,0,0,0-4.082-1.934q-.43.215,0,.43a2.066,2.066,0,0,1,1.289,1.719l-.43,1.719q0,.43.43,0A3.109,3.109,0,0,1,424.316,27.07Zm38.457,29.648v-.43a22.156,22.156,0,0,0-7.2-1.4q-3.76-.107-7.412-.537a54.466,54.466,0,0,1-12.246-1.289h-4.512a14.729,14.729,0,0,0-2.793.215,9.958,9.958,0,0,1-1.934.215q-.859,0-.859-.645a1.7,1.7,0,0,1,.215-1.074,3.535,3.535,0,0,0,.215-1.074,4.85,4.85,0,0,0-.859-2.148,3.953,3.953,0,0,1-1.934-3.437,12.166,12.166,0,0,1,.645-3.867,6.659,6.659,0,0,0,.43-1.289,2.314,2.314,0,0,0-2.148-1.5,22.3,22.3,0,0,0-2.793.859q-.43.43,0,.43a1.645,1.645,0,0,1,1.826,1.182,10.225,10.225,0,0,1,.322,2.686,4.865,4.865,0,0,0,1.074,4.082,15.239,15.239,0,0,0,.859,1.4,5.952,5.952,0,0,1,.859,1.826q-.215.43-.645,1.182t-.859.537q-1.289.43-1.289,1.074a2.128,2.128,0,0,0,1.719,1.719,6.661,6.661,0,0,1,1.5-.43,9.039,9.039,0,0,1,2.148-.215H432.7a14.7,14.7,0,0,1,6.23,1.5,36.878,36.878,0,0,0,12.891,2.148h2.363A22.989,22.989,0,0,0,462.773,56.719Zm-23.2-31.582v.215q-3.008.43-5.8.859-.43.215,0,.43,1.289.215,3.223.43a15.657,15.657,0,0,0,2.578-.215v.215q-.215,4.082-.215,8.379-.215.43-.43.215-.859.215-1.934.43a9.252,9.252,0,0,1-4.727.859q-1.5.43-1.5-.645a3.814,3.814,0,0,1,.43-1.719h-.43a2.934,2.934,0,0,0-1.5,3.223,2.627,2.627,0,0,0,2.148,2.578,6.86,6.86,0,0,0,3.008-1.289,15.237,15.237,0,0,0,1.934-.645,19.024,19.024,0,0,0,2.793-.859h.215a33.934,33.934,0,0,1-1.289,5.156,7.063,7.063,0,0,0-.215,1.719,30.124,30.124,0,0,0-.215,3.223.861.861,0,0,0,1.074,1.074,9.241,9.241,0,0,0,1.719-5.586,22.568,22.568,0,0,1,.859-6.23l.215-.215v-.215a35.358,35.358,0,0,1,6.875-2.363l.215.215a66.069,66.069,0,0,0-.43,10.742q0,2.578.215,5.156-.215,1.719,1.5,1.5a1.38,1.38,0,0,0,1.074-1.074q-.43-5.371-.645-10.312a34.172,34.172,0,0,1,.215-6.66h.215q2.363-.43,5.8-.859a6.312,6.312,0,0,1,1.5.215,3.687,3.687,0,0,0,1.5.215,2.5,2.5,0,0,1,.645-.43.269.269,0,0,0,0-.43,4.493,4.493,0,0,0-3.652-1.934,17.445,17.445,0,0,0-5.586,1.5q-.43.215-.215-.215a18.133,18.133,0,0,1,.645-7.3.19.19,0,0,1,.215-.215q1.5-.43,3.652-1.074.215-.43,0-.645a5.059,5.059,0,0,0-2.148-1.074q-1.289.215-1.289.43V21.7a15.76,15.76,0,0,1,1.074-4.3,3.687,3.687,0,0,0,.215-1.5,4.161,4.161,0,0,0-3.652-4.3q-1.934.215-1.719,1.719-.215.43,0,.215,1.934-.215,2.148,1.934-.215,3.652-.43,7.09,0,.43-.215.215l-6.875,1.719q-.43.215-.215-.215a13.7,13.7,0,0,0,.43-1.934l.43-1.719a3.44,3.44,0,0,0-1.5-2.578,24.018,24.018,0,0,0-2.578-1.5h-.43A23.622,23.622,0,0,1,439.57,25.137Zm2.148,1.5v-.43a44.128,44.128,0,0,0,7.3-1.5l.215.215q-.215,3.867-.645,7.734a.19.19,0,0,1-.215.215q-3.437,1.074-7.3,1.934-.43-.215-.215-1.074Q441.289,29.863,441.719,26.641Z"
    transform="translate(-6.016 -10.265)" fill="#fff" />
</svg>