<?xml version="1.0" standalone="no"?>
<!DOCTYPE svg PUBLIC "-//W3C//DTD SVG 1.1//EN" "http://www.w3.org/Graphics/SVG/1.1/DTD/svg11.dtd"><svg t="1593588655811"
    class="icon" viewBox="0 0 1024 1024" version="1.1" xmlns="http://www.w3.org/2000/svg" p-id="9046"
    xmlns:xlink="http://www.w3.org/1999/xlink" width="200" height="200">
    <defs>
        <style type="text/css"></style>
    </defs>
    <path
        d="M116.49157 374.735664v172.800076c0 9.877661 7.741819 17.831118 17.351892 17.831118 9.608856 0 17.350675-8.008191 17.350675-17.831118V392.288247l-34.702567-17.552583z m829.561753-64.226082C944.186286 306.206274 502.034156 105.685256 502.034156 105.685256L77.946677 310.509582s414.62458 207.644951 417.199511 207.754419c2.259906 0.094872 450.907135-207.754419 450.907135-207.754419z"
        p-id="9047" fill="#fff"></path>
    <path
        d="M802.461737 418.553265L492.175956 567.838402 201.699015 418.916942v350.016577c11.47711 20.605523 31.497588 39.078854 57.015791 55.202271l542.411422-219.581827 1.335509-186.000698z m-231.004202 314.610982l-199.828937 80.720474c-27.892442 11.276419-41.360653 43.031864-30.084235 70.924306 11.278851 27.892442 43.030648 41.361869 70.924306 30.081802l200.628054-77.943636c0.214071-0.907368 6.191023-32.940132-3.73894-57.603269-10.1416-25.038977-37.900248-46.179677-37.900248-46.179677zM391.54204 903.894162a39.87797 39.87797 0 0 1-34.535932-59.823036 39.876753 39.876753 0 0 1 34.535932-19.941418c22.026174 0 39.879186 17.855444 39.879186 39.881619s-17.853012 39.882835-39.879186 39.882835z m278.040162-152.207932c-10.305802-25.464685-37.050047-43.243502-37.050047-43.243502l-21.088399 8.542151-19.859924 8.008191-1.069138 0.480443 0.054734 0.052302c0.532744 0.373407 26.906014 18.366295 36.943012 43.136466 10.144033 25.038977 3.736507 57.81734 3.736507 57.81734l42.069762-17.030786 0.052301-0.107035c0.107035-0.583829 6.407526-32.454824-3.788808-57.65557z m148.095585-117.984592l-168.010244 66.413009c0.800333 3.04321 27.975151 15.804744 38.066883 40.84372 10.300937 25.464685 5.442991 60.485926 5.442991 60.485926l29.630551-11.956336 31.763959 78.743969 13.453616-38.278521 36.783674 11.051401-29.362962-72.767017 83.070387-33.581128c27.892442-11.276419 41.361869-43.031864 30.081802-70.924306-11.276419-27.892442-43.031864-41.361869-70.924306-30.084235v0.054734h0.003649v-0.001216z"
        p-id="9048" fill="#fff"></path>
    <path
        d="M391.327969 863.319246z m-18.899039 0c0 10.43838 8.460659 18.900255 18.899039 18.900255s18.899039-8.461875 18.899039-18.900255-8.460659-18.897823-18.899039-18.897823-18.899039 8.461875-18.899039 18.897823z"
        p-id="9049" fill="#fff"></path>
</svg>